Coordinates
version=1
nRows=10
nColumns=27
inDegrees=yes

Units are S.I. units (second, meters, Newtons, ...)
If the header above contains a line with 'inDegrees', this indicates whether rotational values are in degrees (yes) or radians (no).

endheader
time	pelvis_rotation	pelvis_tilt	pelvis_list	pelvis_tx	pelvis_ty	pelvis_tz	hip_flexion_r	hip_adduction_r	hip_rotation_r	knee_angle_r	knee_rotation_r	knee_adduction_r	knee_angle_r_beta	ankle_angle_r	subtalar_angle_r	mtp_angle_r	hip_flexion_l	hip_adduction_l	hip_rotation_l	knee_angle_l	knee_rotation_l	knee_adduction_l	knee_angle_l_beta	ankle_angle_l	subtalar_angle_l	mtp_angle_l
      4.19000000	      8.83876229	    -36.47172436	      7.43693427	     -0.03738241	      0.64216549	     -1.15078200	    101.73129171	    -47.72469234	      1.25694282	     77.34371535	      0.00000000	      9.88471528	      1.34990249	      6.78015726	      0.00000000	      0.00000000	     95.24856211	    -31.95224972	     -8.07124367	     70.63375399	      0.00000000	     -9.90354621	      1.23279157	      1.85637415	      0.00000000	      0.00000000
      4.19500000	      8.80708872	    -36.51844428	      7.43901523	     -0.03759355	      0.64044501	     -1.15075761	    102.16950365	    -47.71924387	      1.56771264	     77.65553725	      0.00000000	      9.88537608	      1.35534481	      6.83070238	      0.00000000	      0.00000000	     95.57724370	    -32.11402843	     -7.98884573	     70.96234096	      0.00000000	     -9.90460713	      1.23852649	      1.89229187	      0.00000000	      0.00000000
      4.20000000	      8.79418302	    -36.52833827	      7.40257919	     -0.03770061	      0.63880185	     -1.15068998	    102.49169504	    -47.75402363	      1.78183209	     77.95990538	      0.00000000	      9.88627794	      1.36065703	      6.89969225	      0.00000000	      0.00000000	     95.89049647	    -32.25668140	     -7.86595109	     71.28291547	      0.00000000	     -9.90559877	      1.24412158	      1.92150158	      0.00000000	      0.00000000
      4.20500000	      8.81162692	    -36.64323650	      7.45889008	     -0.03802686	      0.63712579	     -1.15068293	    103.05221763	    -47.76132190	      2.15922337	     78.26084051	      0.00000000	      9.88713183	      1.36590934	      6.91605547	      0.00000000	      0.00000000	     96.27186712	    -32.35657157	     -7.79167801	     71.58915652	      0.00000000	     -9.90651334	      1.24946649	      1.97383387	      0.00000000	      0.00000000
      4.21000000	      8.80183834	    -36.63370285	      7.39776298	     -0.03810728	      0.63556092	     -1.15055868	    103.29965360	    -47.79292421	      2.31879473	     78.55491200	      0.00000000	      9.88797129	      1.37104186	      7.00495298	      0.00000000	      0.00000000	     96.57135228	    -32.48579175	     -7.63600424	     71.88475942	      0.00000000	     -9.90749836	      1.25462573	      1.96338859	      0.00000000	      0.00000000
      4.21500000	      8.71935439	    -36.64135655	      7.34377368	     -0.03817314	      0.63392378	     -1.15045097	    103.62305139	    -47.75642745	      2.54739225	     78.85868002	      0.00000000	      9.88863225	      1.37634361	      7.09443121	      0.00000000	      0.00000000	     96.86022339	    -32.70906382	     -7.54627791	     72.20533594	      0.00000000	     -9.90845497	      1.26022085	      1.99365498	      0.00000000	      0.00000000
      4.22000000	      8.81143689	    -36.71732210	      7.40809368	     -0.03838646	      0.63227550	     -1.15045736	    104.12115101	    -47.86148470	      2.87353860	     79.16437124	      0.00000000	      9.88948310	      1.38167893	      7.07745553	      0.00000000	      0.00000000	     97.21694366	    -32.72878310	     -7.43116121	     72.50622423	      0.00000000	     -9.90911616	      1.26547234	      2.06560087	      0.00000000	      0.00000000
      4.22500000	      8.82629719	    -36.72548494	      7.37065469	     -0.03845571	      0.63075907	     -1.15034862	    104.39147139	    -47.90166503	      3.05186786	     79.44256663	      0.00000000	      9.89017034	      1.38653435	      7.18885540	      0.00000000	      0.00000000	     97.52110642	    -32.83625693	     -7.29755420	     72.78727695	      0.00000000	     -9.90990047	      1.27037764	      2.05078737	      0.00000000	      0.00000000
      4.23000000	      8.81500220	    -36.79078728	      7.37178131	     -0.03861857	      0.62918761	     -1.15025783	    104.80070348	    -47.89606669	      3.32291584	     79.72887197	      0.00000000	      9.89075135	      1.39153132	      7.25256497	      0.00000000	      0.00000000	     97.85494497	    -32.96805994	     -7.19748460	     73.07486352	      0.00000000	     -9.91068021	      1.27539697	      2.07266162	      0.00000000	      0.00000000
      4.23500000	      8.86607513	    -36.82665981	      7.36716975	     -0.03870169	      0.62760682	     -1.15018128	    105.15558813	    -47.96825147	      3.55084222	     80.02512330	      0.00000000	      9.89145006	      1.39670189	      7.31901196	      0.00000000	      0.00000000	     98.19214446	    -33.03842095	     -7.05486997	     73.36798102	      0.00000000	     -9.91145137	      1.28051283	      2.09729434	      0.00000000	      0.00000000
